<svg width="137" height="71" viewBox="0 0 137 71" fill="none" xmlns="http://www.w3.org/2000/svg">
<g clip-path="url(#clip0_2690_1934)">
<path d="M102.014 8.23648C107.749 11.4873 112.315 12.1447 118.615 15.1033C125.957 18.5367 129.628 19.1394 136.075 14.318C131.217 11.1403 127.528 8.94873 122.14 5.6249C115.237 1.36965 107.146 3.45162 101.996 8.21822L102.014 8.23648Z" fill="#5BA14C"/>
<path d="M107.075 7.7251C107.075 7.7251 106.308 7.79815 106.18 7.77989C106.289 7.77989 107.111 7.77989 107.075 7.7251Z" fill="#4D8C41"/>
<path d="M134.687 14.0075C134.687 14.0075 134.724 14.0075 134.705 14.0075C134.559 13.9892 134.614 14.0075 134.687 14.0075Z" fill="#4D8C41"/>
<path d="M134.704 13.9893C134.685 13.9893 134.594 13.9893 134.594 13.9893C134.612 13.9893 134.612 13.9893 134.649 13.9893C134.667 13.9893 134.722 14.026 134.759 13.9893C134.795 13.9527 134.722 13.9161 134.704 13.971V13.9893Z" fill="#4D8C41"/>
<path d="M105.794 7.81641C105.794 7.81641 105.794 7.81641 105.813 7.81641C105.813 7.81641 105.849 7.81641 105.868 7.81641C105.886 7.81641 105.959 7.81641 105.959 7.81641C105.959 7.81641 105.904 7.81641 105.923 7.81641H105.996C106.033 7.81641 106.087 7.81641 106.124 7.81641C106.051 7.81641 105.886 7.81641 105.831 7.83472C105.776 7.85304 105.758 7.83472 105.758 7.83472L105.794 7.81641Z" fill="#4D8C41"/>
<path d="M133.918 13.8979C130.558 14.6832 126.412 14.1719 123.18 11.8525C123.508 11.7429 123.801 11.6698 124.111 11.5237C124.622 11.2863 125.152 11.0124 125.645 10.7384C125.079 10.9393 124.476 11.122 123.874 11.2315C123.435 11.3229 123.015 11.3229 122.577 11.3594C121.226 10.2271 119.892 9.11305 118.304 8.63821C118.76 8.45559 119.271 8.16338 119.728 8.03554C120.495 7.79812 121.189 7.56071 121.956 7.34155C120.988 7.4146 120.166 7.39634 119.198 7.63376C118.413 7.81639 117.719 8.07207 116.696 8.38254C115.546 7.7616 107.675 7.68855 107.711 7.70681C109.647 8.12685 113.811 8.49211 116.587 9.05826C117.573 9.78877 118.486 10.4828 119.253 11.4872C120.13 12.6195 120.933 13.8797 121.773 15.0667C121.079 13.8797 120.422 12.6926 119.728 11.5055C119.271 10.7019 118.778 10.0262 118.157 9.35047C119.691 9.64267 121.116 10.9028 122.449 11.9438C122.869 12.6195 123.308 13.3866 123.746 14.0258C124.275 14.8111 124.805 15.4503 125.481 16.0529C124.896 15.432 124.422 14.8111 123.983 14.0623C123.673 13.5692 123.381 12.9665 123.088 12.4369C126.741 15.0119 130.795 14.3545 134.539 14.0075C134.576 14.0075 134.758 14.044 134.685 14.0258C134.411 13.9892 134.192 13.9527 133.936 13.9162L133.918 13.8979Z" fill="#4D8C41"/>
<path d="M76.2826 50.3689C72.0456 46.0771 71.3334 45.9858 70.1828 44.5613C64.9779 38.1328 68.7766 26.9376 69.8906 23.6138C71.8447 17.8062 74.365 10.6655 81.3232 7.23204C87.0394 4.4013 92.5548 5.66143 101.613 7.7434C107.676 9.13137 112.151 10.2271 115.749 14.2267C119.2 18.0436 119.913 22.3902 120.479 25.4584C120.935 27.9421 123.273 40.6165 114.434 50.588C113.648 51.4829 107.256 58.4593 96.8648 59.5186C93.9063 59.829 87.2403 60.5048 82.2546 56.6148C80.6292 55.3364 80.5379 54.6424 76.2826 50.3506V50.3689Z" fill="url(#paint0_radial_2690_1934)"/>
<path d="M106.14 12.1996C105.976 12.8388 103.145 12.6927 99.8032 11.8526C96.4611 11.0125 93.8861 9.80716 94.0504 9.16796C94.2148 8.52876 97.0455 8.67486 100.388 9.51495C103.73 10.355 106.305 11.5604 106.14 12.1996Z" fill="#CF8957"/>
<path d="M99.131 11.4691C98.7292 10.5194 99.825 9.31404 99.9711 9.16794C101.03 7.99911 102.528 7.92606 102.893 7.92606C103.514 7.77996 104.153 7.96259 104.573 8.43742C104.975 8.89399 105.139 9.60624 104.884 10.0993C104.665 10.5194 104.299 10.4463 103.587 10.976C102.93 11.4873 102.966 11.743 102.546 12.0535C101.578 12.7475 99.5693 12.4918 99.131 11.4873V11.4691Z" fill="#8C7E63"/>
<path d="M99.131 11.4691C98.7292 10.5195 99.825 9.31412 99.9711 9.16802C101.03 7.9992 102.528 7.92615 102.893 7.92615C103.149 8.05399 103.514 8.25488 103.879 8.58361C104.245 8.91234 105.03 9.5698 104.866 10.0994C104.756 10.4647 104.318 10.4099 103.569 10.976C102.911 11.4874 102.948 11.7431 102.528 12.0535C101.56 12.7475 99.551 12.4919 99.1127 11.4874L99.131 11.4691Z" fill="#8C7E63"/>
<path d="M76.2824 50.3689C72.2463 46.2963 71.3514 45.9127 70.1826 44.5613C67.8449 41.8401 65.4342 31.686 69.7077 21.1666C70.2921 19.7238 76.6659 4.56566 86.4 4.34651C91.4223 4.21867 91.6414 8.19997 100.663 10.6837C107.968 12.6926 110.945 10.9394 115.31 13.9528C119.401 16.7652 120.898 21.1301 121.556 23.0477C124.843 32.6357 120.953 43.7029 114.433 50.6063C112.662 52.4691 106.471 58.5506 96.8646 59.5368C93.906 59.8473 87.2401 60.523 82.2543 56.633C80.6289 55.3546 80.5376 54.6606 76.2824 50.3689Z" fill="url(#paint1_radial_2690_1934)"/>
<path d="M82.5088 47.1181C77.797 39.4659 76.5003 40.0504 75.021 36.5074C74.3636 34.955 73.14 31.2842 77.3039 15.1398C77.8883 12.8935 78.6371 10.1541 79.5867 7.03113C73.7792 11.5055 70.1631 20.1073 69.7248 21.1666C65.433 31.686 67.8437 41.8401 70.1996 44.5613C71.3502 45.8945 72.2451 46.278 76.2994 50.3689C80.5547 54.6789 80.646 55.3729 82.2714 56.633C85.6317 59.2446 89.7591 59.7925 92.9917 59.7742C90.7271 58.7332 89.1382 57.4731 88.0059 56.2678C85.8874 54.0214 85.9605 52.7065 82.5088 47.0998V47.1181Z" fill="#A8BF70"/>
<path d="M91.9896 17.8245L90.8756 19.1577C90.5103 19.596 90.1633 20.0343 89.8163 20.4909C89.1406 21.3858 88.4831 22.2624 87.8987 23.1938C87.6065 23.6504 87.3143 24.107 87.0404 24.5818L86.8395 24.9288L86.6386 25.294L86.2551 26.0063L86.0542 26.3533L85.8715 26.7185L85.5246 27.4491C85.3967 27.6865 85.3054 27.9422 85.1958 28.1796L84.8671 28.9101C84.0635 30.9007 83.4243 32.9644 82.9495 35.1012C82.7121 36.1787 82.5112 37.2562 82.3286 38.3702C82.2372 38.9181 82.1642 39.4843 82.0729 40.0504C81.9998 40.6166 81.9268 41.1827 81.8355 41.7671C81.3972 40.6714 81.1232 39.5208 80.9406 38.352C80.7762 37.1831 80.7032 35.9961 80.7397 34.809C80.831 32.4348 81.3424 30.0424 82.2372 27.8143L82.6208 26.9925L82.8034 26.5907L82.8947 26.3898C82.8947 26.3898 82.9678 26.262 83.0043 26.1889L83.4426 25.4036L83.6617 25.0018C83.7348 24.874 83.8261 24.7462 83.9174 24.6183C84.5749 23.6139 85.3054 22.6459 86.1272 21.7876C87.7891 20.0709 89.7433 18.6464 91.9348 17.8063L91.9896 17.8245Z" fill="#A8BF70"/>
<path d="M121.574 23.0294C121.172 21.8788 120.478 19.8517 119.09 17.788C120.003 21.8606 120.569 27.102 119.747 33.0557C118.469 42.1506 114.433 49.1635 110.543 54.0397C112.442 52.6152 113.775 51.282 114.451 50.5698C120.989 43.6664 124.879 32.5809 121.574 23.0111V23.0294Z" fill="#BFD38C"/>
<path d="M19.0117 15.2129C25.8968 14.5737 30.2068 12.3822 37.4024 11.1403C45.7668 9.67931 49.2915 7.99913 51.9396 0C45.8581 0.182628 41.3654 0.51136 34.7543 0.894879C26.2621 1.38798 20.5641 8.03565 19.0117 15.2129Z" fill="#5BA14C"/>
<path d="M23.0686 11.7429C23.0686 11.7429 22.4458 12.2558 22.3359 12.329C22.4275 12.2741 23.1418 11.7612 23.0686 11.7429Z" fill="#4D8C41"/>
<path d="M50.5543 0.584351C50.5543 0.584351 50.5909 0.584351 50.5726 0.584351C50.4261 0.657614 50.481 0.620982 50.5543 0.584351Z" fill="#4D8C41"/>
<path d="M50.5708 0.547987C50.5525 0.547987 50.4793 0.602934 50.4609 0.602934C50.4793 0.602934 50.4793 0.602934 50.4976 0.584618C50.5159 0.566302 50.5708 0.584618 50.5892 0.529671C50.5892 0.493039 50.4976 0.493039 50.5342 0.529671L50.5708 0.547987Z" fill="#4D8C41"/>
<path d="M22.0078 12.602C22.0078 12.602 22.0078 12.602 22.0261 12.602C22.0261 12.602 22.0628 12.5654 22.0811 12.5654C22.0811 12.5654 22.1543 12.5104 22.1543 12.4921C22.1543 12.4921 22.1177 12.5287 22.1177 12.5104C22.1177 12.5104 22.1727 12.4555 22.191 12.4555C22.2276 12.4188 22.2642 12.4005 22.3009 12.3639C22.2459 12.4188 22.1177 12.5287 22.0628 12.547C22.0261 12.5837 22.0078 12.602 22.0078 12.602Z" fill="#4D8C41"/>
<path d="M49.822 0.949604C47.393 3.63424 43.5213 5.67968 39.3574 5.64316C39.5765 5.36921 39.7774 5.1318 39.96 4.80306C40.2522 4.2917 40.5444 3.74382 40.8001 3.19593C40.4349 3.70729 40.0148 4.21865 39.5765 4.67522C39.2478 5.02222 38.9008 5.25964 38.5355 5.5701C36.691 5.424 34.883 5.25964 33.221 5.80752C33.5132 5.36921 33.7689 4.82133 34.0794 4.43781C34.609 3.78035 35.0656 3.15941 35.5769 2.50195C34.7916 3.15941 34.0794 3.61598 33.3854 4.41954C32.8375 5.05874 32.381 5.67968 31.6687 6.5563C30.299 6.72066 23.5052 11.3777 23.5235 11.3594C25.4411 10.5559 29.2397 8.38258 31.9609 7.1955C33.2576 7.23202 34.4447 7.28681 35.7048 7.67033C37.1293 8.10864 38.5903 8.71131 40.0148 9.22267C38.7182 8.62 37.4215 7.9808 36.1248 7.39639C35.2482 6.99461 34.4264 6.7024 33.4767 6.48325C34.9743 5.80752 36.9649 6.04494 38.7182 6.13625C39.4852 6.46498 40.3253 6.86677 41.0923 7.14071C42.0237 7.4877 42.8638 7.72512 43.8135 7.8347C42.9369 7.65207 42.1698 7.39639 41.3297 7.03113C40.7636 6.77545 40.1427 6.44672 39.5765 6.17278C44.2701 6.19104 47.3565 3.19593 50.3699 0.657399C50.4064 0.639136 50.5707 0.547822 50.516 0.584347C50.242 0.712187 50.0411 0.803501 49.8037 0.949604H49.822Z" fill="#4D8C41"/>
<path d="M34.0762 21.9884C40.523 16.1809 49.764 16.5461 53.6905 16.7105C57.3065 16.8566 66.0362 17.2036 73.3048 23.8695C79.7698 29.8049 83.8972 39.6304 81.5961 49.8941C81.4683 50.4785 78.0348 64.7052 64.2464 69.5084C53.033 73.4166 41.6735 68.7231 35.2085 61.9658C24.4334 50.7159 24.3238 30.7911 34.0762 21.9884Z" fill="url(#paint2_radial_2690_1934)"/>
<path d="M43.8832 33.3114C43.1344 32.7818 43.9379 28.8918 46.6591 27.1568C49.6359 25.2392 53.946 26.5724 54.0373 27.4673C54.0921 28.0152 52.5763 28.1613 49.4168 29.9328C45.5999 32.0512 44.431 33.7132 43.8832 33.3114Z" fill="#CF8957"/>
<path d="M48.8341 29.7867C49.3637 29.0927 48.7063 27.8508 48.615 27.6865C47.9758 26.4811 46.7339 26.1159 46.4234 26.0428C45.9303 25.7871 45.3642 25.8237 44.9259 26.1159C44.4876 26.4081 44.1954 26.9742 44.3232 27.449C44.4145 27.8508 44.7432 27.8508 45.2181 28.4535C45.6746 29.0197 45.5833 29.2388 45.8573 29.5675C46.533 30.3528 48.2497 30.5537 48.8341 29.805V29.7867Z" fill="#8C7E63"/>
<path d="M48.8342 29.7872C49.3638 29.0932 48.7063 27.8514 48.615 27.687C47.9758 26.4816 46.734 26.1164 46.4235 26.0433C46.1861 26.0981 45.8391 26.1894 45.4556 26.3721C45.072 26.573 44.2867 26.9565 44.305 27.4313C44.305 27.76 44.6885 27.8148 45.1999 28.4358C45.6565 29.0019 45.5651 29.2211 45.8391 29.5498C46.5148 30.3351 48.2315 30.536 48.8159 29.7872H48.8342Z" fill="#8C7E63"/>
<path d="M37.2729 55.5921L37.2363 54.2041C37.2363 53.7475 37.2363 53.3092 37.2363 52.8527C37.2363 51.9578 37.2729 51.0812 37.3459 50.2045C37.3824 49.7662 37.419 49.3279 37.4737 48.8896L37.5103 48.5609L37.5651 48.2322L37.6564 47.5747L37.7112 47.246L37.7659 46.9172L37.8938 46.2598C37.9303 46.0406 37.9851 45.8215 38.0399 45.6206L38.186 44.9814C38.606 43.2647 39.1722 41.5662 39.8479 39.8678C40.1766 39.0094 40.5602 38.1693 40.9437 37.311C41.1446 36.8909 41.3455 36.4526 41.5464 36.0326C41.7472 35.5943 41.9664 35.1742 42.1673 34.7177C41.4368 35.3203 40.7793 36.0143 40.1766 36.7631C39.574 37.5119 39.0078 38.3337 38.5147 39.192C37.5103 40.9088 36.7615 42.7898 36.2684 44.7074L36.1223 45.4379L36.0492 45.8032L36.0127 45.9858C36.0127 45.9858 36.0127 46.1137 35.9945 46.1685L35.9031 46.899L35.8483 47.2642C35.8483 47.3921 35.8484 47.5016 35.8118 47.6295C35.7388 48.5974 35.7205 49.5653 35.8118 50.4967C35.9762 52.3596 36.451 54.1311 37.2911 55.5921H37.2729Z" fill="#BFD38C"/>
<path d="M48.2297 66.9334C47.6818 66.8055 35.7927 63.8287 35.537 59.1169C35.4822 58.1672 35.9205 57.5463 35.7014 56.1948C35.1535 52.9258 31.6836 51.0447 30.8252 50.4968C29.6746 49.7663 28.5058 48.5061 27.4648 46.2781C28.5058 52.0309 31.0626 57.6376 35.2083 61.9659C41.6733 68.7231 53.0328 73.4167 64.2462 69.5084C67.6614 68.3213 70.4556 66.5498 72.7019 64.5409C66.1455 67.0429 57.2698 69.1249 48.248 66.9334H48.2297Z" fill="#A8BF70"/>
<path d="M40.4319 24.3079C39.0074 23.3947 35.0261 20.8379 31.5379 19.0847C21.5299 14.0442 12.4167 13.9346 12.4532 13.6972C12.4898 13.478 20.5071 13.3502 29.8395 16.674C37.6194 19.45 43.3174 23.5774 46.9335 26.682C47.4996 27.7778 48.1023 28.9284 48.7598 30.0972C46.0751 28.0335 43.2626 26.1342 40.4136 24.2896L40.4319 24.3079Z" fill="#8C7E63"/>
<path d="M2.57375 21.6232C5.36797 16.5279 8.80138 14.5007 13.1297 13.3501C13.4584 13.2588 14.1524 13.2223 14.2254 13.2223C16.1796 13.0031 17.1475 12.9118 17.9328 13.0214C19.266 13.2223 20.727 14.172 21.1836 15.1034C22.535 17.9889 14.5359 21.5319 10.8286 29.8597C7.9065 36.4344 8.6918 43.0638 9.69626 47.1729C11.2851 53.6928 13.1845 55.8843 15.1386 61.4545C12.3626 59.7195 10.8833 58.0758 8.47265 55.6469C5.51407 52.6518 2.39112 45.6571 1.44145 42.2237C-0.695298 34.4985 -0.567458 27.3395 2.57375 21.6232Z" fill="#549647"/>
<path d="M5.20179 22.2807C6.11493 20.8745 7.64901 18.9021 10.0597 17.2767C13.8036 14.7564 19.4833 13.1675 20.8896 14.9938C21.1087 15.286 21.1818 15.5965 21.2 15.7609C21.4375 19.4682 13.968 28.5083 12.927 30.8825C10.2423 37.0919 10.151 43.2647 11.1007 47.6843C12.4704 54.1494 14.0958 56.3592 15.6664 61.9659C13.0548 60.1031 11.7034 58.4046 9.49356 55.8661C6.77239 52.7431 3.83208 45.8215 3.01025 42.4064C1.12918 34.736 1.71359 27.6317 5.20179 22.2807Z" fill="#5CA34D"/>
<path d="M4.8542 47.1181C5.62124 45.7667 6.40654 44.3787 7.24663 43.1003C8.08672 41.8036 8.99987 40.5983 9.93127 39.3929C10.0043 39.6121 10.0774 39.8495 10.1504 40.0687C10.2235 40.2878 10.2965 40.5252 10.3696 40.7444C9.40165 41.7671 8.43372 42.735 7.52057 43.8126C6.60743 44.8901 5.71255 46.0041 4.83594 47.1181H4.8542Z" fill="#4D8C41"/>
<path d="M9.89453 56.1401C10.2963 55.4643 10.6068 54.7338 10.9173 54.0216C11.2277 53.3093 11.5017 52.6153 11.8121 51.9031C11.8852 52.0127 11.9582 52.1222 12.0313 52.2318C12.1043 52.3414 12.1774 52.451 12.2504 52.5605C11.8669 53.1632 11.5199 53.7294 11.1364 54.3503C10.7529 54.9712 10.3511 55.5739 9.89453 56.1401Z" fill="#4D8C41"/>
<path d="M2.75391 36.2518C4.10536 34.7177 6.00469 32.6358 7.44746 31.4487C9.98599 29.3302 12.1045 27.924 14.8439 26.3899C14.3691 27.0839 13.8577 27.7231 13.4742 28.4536C13.2733 28.8371 13.2368 29.2937 13.0542 29.6955C11.1913 30.499 9.40158 31.5218 7.64835 32.5445C5.89512 33.5672 4.32451 35.0282 2.75391 36.2701V36.2518Z" fill="#4D8C41"/>
<path d="M10.4233 47.6113C9.51018 42.8264 9.51018 36.8545 12.4505 30.2798C13.5097 27.9057 20.34 19.0482 21.034 15.1217C21.2715 14.9938 21.2715 15.1217 21.2715 15.5052C21.2715 19.5413 13.9846 28.3257 12.9071 30.7364C10.1311 37.0006 10.0946 43.1003 11.0077 47.5382C12.3409 54.0398 14.0394 56.2313 15.5734 61.838C15.2812 61.5276 14.9708 61.3084 14.6786 61.2171C13.3089 55.8296 11.6104 53.8572 10.4051 47.6113H10.4233Z" fill="#4D8C41"/>
</g>
<defs>
<radialGradient id="paint0_radial_2690_1934" cx="0" cy="0" r="1" gradientUnits="userSpaceOnUse" gradientTransform="translate(101.533 9.98418) rotate(14.05) scale(26.5542 26.5542)">
<stop stop-color="#F4A45C"/>
<stop offset="0.11" stop-color="#F5AB5C"/>
<stop offset="0.29" stop-color="#F9C15E"/>
<stop offset="0.38" stop-color="#FCD060"/>
<stop offset="0.54" stop-color="#D5CD6B"/>
<stop offset="0.66" stop-color="#BCCC72"/>
<stop offset="0.74" stop-color="#B3CC75"/>
<stop offset="1" stop-color="#B3CC75"/>
</radialGradient>
<radialGradient id="paint1_radial_2690_1934" cx="0" cy="0" r="1" gradientUnits="userSpaceOnUse" gradientTransform="translate(101.652 10.7859) rotate(14.05) scale(26.9925)">
<stop stop-color="#F4A45C"/>
<stop offset="0.21" stop-color="#F8BE5E"/>
<stop offset="0.33" stop-color="#FCD060"/>
<stop offset="0.58" stop-color="#D7CD6B"/>
<stop offset="0.8" stop-color="#BECC72"/>
<stop offset="0.93" stop-color="#B6CC75"/>
<stop offset="1" stop-color="#B3CC75"/>
</radialGradient>
<radialGradient id="paint2_radial_2690_1934" cx="0" cy="0" r="1" gradientUnits="userSpaceOnUse" gradientTransform="translate(53.1426 41.9863) scale(27.3943 27.3943)">
<stop stop-color="#F4A45C"/>
<stop offset="0.17" stop-color="#F4A75C"/>
<stop offset="0.33" stop-color="#F6B35D"/>
<stop offset="0.48" stop-color="#FAC55F"/>
<stop offset="0.54" stop-color="#FCD060"/>
<stop offset="0.61" stop-color="#F7CF61"/>
<stop offset="0.68" stop-color="#E9CF65"/>
<stop offset="0.76" stop-color="#D3CD6B"/>
<stop offset="0.84" stop-color="#B3CC75"/>
<stop offset="0.91" stop-color="#B8CC74"/>
<stop offset="0.99" stop-color="#C7CE72"/>
<stop offset="1" stop-color="#C9CF72"/>
</radialGradient>
<clipPath id="clip0_2690_1934">
<rect width="136.095" height="70.9329" fill="white"/>
</clipPath>
</defs>
</svg>
