<svg xmlns="http://www.w3.org/2000/svg" width="230" height="229" fill="none"><g clip-path="url(#a)"><path fill="#F3E3BB" d="M108.937 93.241s-4.983-5.63-6.087-5.563c-1.103.067.536 2.832.536 2.832-3.267-1.684-6.901-1.494-7.804-.212s3.043 7.458 12.33 7.748c1.794-3.322 1.025-4.805 1.025-4.805"/><path fill="#FCD56B" d="M141.366 72.896c7.302-.97-4.615 27.758-7.614 31.08s-27.635-6.109-27.635-6.109c1.65-1.37 1.761-5.752 1.761-5.752 9.353 1.081 19.175 2.954 19.175 2.954 1.884-4.37 8.45-21.393 14.313-22.173"/><path fill="#FB624A" d="m160.563 116.473 3.813 18.528-32.43.948 2.52-16.711z"/><path fill="#19386A" d="M145.736 41.28c0-.824-.947-1.304-1.761-1.449-2.954-.546-5.886.524-8.506 1.773-2.798 1.327-5.05 3.322-6.053 6.332-.736 2.218-.803 4.604-.624 6.934.223 2.898.747 5.652 2.486 8.049 1.003 1.393 2.185 2.675 3.021 4.169a11.15 11.15 0 0 1 1.415 4.872c.123 2.307-.379 4.637.157 6.922.468 2.04 2.708 2.72 4.57 2.62 2.23-.111 4.337-.959 5.563-2.92 1.75-2.81 3.456-5.664 4.816-8.685 1.204-2.698 1.416-5.685 1.438-8.595s.067-6.087-.491-9.085c-.613-3.289-1.962-6.522-4.347-8.863"/><path fill="#FFDF7B" d="M154.097 70.098c4.805 3.389 6.867 4.102 8.763 6.856s-3.267 35.629-3.233 36.576c2.218 5.396 3.444 9.654 3.444 9.654s-23.488 4.17-31.203.658c1.762-4.827 3.557-9.754 3.557-9.754-.758-3.601-3.958-18.038-3.557-22.686.246-2.81 1.806-6.611 2.765-10.167a13.66 13.66 0 0 1 11.259-9.989l8.205-1.17z"/><path fill="#F3E3BB" d="M47.936 81.915s3.723-7.19 4.894-7.414c1.17-.223.19 3.088.19 3.088 2.965-2.62 6.81-3.377 8.093-2.274 1.282 1.104-1.215 8.584-10.836 11.326-2.742-2.998-2.33-4.737-2.33-4.737z"/><path fill="#F7A166" d="m28.717 91.168 19.308-10.48 5.273 6.533s-16.889 15.451-22.82 17.313c-5.93 1.862-1.772-13.367-1.772-13.367z"/><path fill="#F25341" d="M74.646 93.43a5.028 5.028 0 1 0 0-10.055 5.028 5.028 0 0 0 0 10.055"/><path fill="#FB624A" d="M71.436 100.253a5.028 5.028 0 1 0 0-10.055 5.028 5.028 0 0 0 0 10.055M81.803 97.89a5.028 5.028 0 1 0 0-10.056 5.028 5.028 0 0 0 0 10.056"/><path fill="#AAB23F" d="m87.444 86.474 3.802-7.424-2.453-.457-1.65 6.577.256-6.444-2.385.892.59 6.957z"/><path fill="#FF9A55" d="M86.697 85.694c-1.728-.39-4.203 1.45-5.072 7.012-.859 5.563-.624 14.57.156 14.838.814.1 4.894-7.938 6.5-13.333 1.604-5.396.144-8.116-1.584-8.506z"/><path fill="#AAB23F" d="m77.745 91.97 1.717-8.16-2.486.2.156 6.79-1.46-6.277-2.062 1.483 2.396 6.555z"/><path fill="#FF9A55" d="M76.831 91.413c-1.761.078-3.678 2.508-3.043 8.104s3.244 14.225 4.069 14.27c.814-.123 2.62-8.952 2.742-14.582.123-5.63-2.006-7.87-3.768-7.792"/><path fill="#AAB23F" d="M65.104 98.559c-2.241-2.14-2.386-5.653-3.958-8.317-.669-1.126-1.583-2.096-2.24-3.233-.803-1.37-1.216-2.943-1.561-4.492a93 93 0 0 1-.703-3.423c-.1-.557-.19-1.148 0-1.683.28-.736 1.048-1.16 1.784-1.46.613-.246 1.26-.446 1.917-.424.658.022 1.338.334 1.673.914.111.2.19.424.379.558.423.3.97-.145 1.482-.268.547-.134 1.126.156 1.505.569.38.412.591.958.792 1.471.379.959.758 1.962.736 2.988-.023.69-.223 1.382-.19 2.073.045 1.082.658 2.063.78 3.133.134 1.137-.29 2.263-.602 3.366a18.7 18.7 0 0 0-.69 5.663c.033.981.1 2.096-.591 2.799"/><path fill="#DCE288" d="M67.79 102.616c.056.58.123 1.182-.122 1.717a.6.6 0 0 1-.168.234c-.178.123-.434.056-.602-.078s-.29-.323-.457-.468c-.368-.323-.892-.412-1.282-.713-.479-.391-.624-1.037-.802-1.628-.257-.87-.67-1.74-1.416-2.252-.346-.234-.736-.412-1.104-.624.067.267.156.535.2.802.246 1.517.18 3.066.112 4.593-.066 1.483-.267 3.133.246 4.56 1.126 3.066 6.12 4.693 8.662 2.374 1.114-1.014 1.349-2.697 1.181-4.191-.245-2.152-1.17-4.147-2.129-6.065-.58-1.17-1.393-2.486-1.884-3.812a10 10 0 0 0-.412 1.583c-.212 1.315-.157 2.664-.023 4.002z"/><path fill="#AFBE3F" d="M67.802 95.147c-.079-1.616.891-3.088 1.872-4.38.87-1.15 1.817-2.342 2.13-3.78.356-1.605.2-3.255.044-4.872-.033-.345-.089-.724-.379-.914-.557-.379-1.182.312-1.75.68-1.472.959-4.348-.089-4.448 2.475-.022.691.2 1.371.357 2.051s.256 1.416-.023 2.052c-.29.668-.936 1.114-1.337 1.716-.658.993-.614 2.286-.324 3.445.29 1.148.792 2.24.992 3.411-.4-.089-.59-.546-.713-.936a46 46 0 0 1-1.527-6.433c-.245-1.505-.424-3.054-1.115-4.414-.925-1.828-2.787-3.166-4.816-3.445-.29-.044-.602-.055-.88.067-.302.134-.502.424-.759.647-.813.702-2.05.59-3.054.958-.859.324-1.528.981-2.13 1.673-.59.68-1.282 1.638-1.103 2.597.134.68.713 1.182 1.27 1.594 1.65 1.238 3.457 2.341 5.474 2.754 1.795.356 3.055.903 4.214 2.385a11 11 0 0 1 1.115 1.74c.424.813.714 1.683.925 2.575.357.223.758.39 1.104.624.747.513 1.16 1.382 1.416 2.252.178.591.323 1.248.802 1.627.38.313.914.391 1.282.714.156.145.28.334.457.468.168.134.424.201.603.078a.5.5 0 0 0 .167-.234c.245-.524.178-1.137.122-1.717-.122-1.326-.178-2.675.023-4.002.089-.535.223-1.07.412-1.583-.234-.624-.401-1.26-.435-1.895z"/><path fill="#F2C173" d="M85.192 96.942H60.555v31.37h24.637z"/><path fill="#FCE3C0" d="M80.733 106.552h-17.57v12.686h17.57z"/><path fill="#EAB568" d="M87.611 96.942h-4.058v31.37h4.058zM66.65 109.551a.5.5 0 0 0-.036-.192.9.9 0 0 1-.012-.348q.024-.084.06-.18-.012-.24-.024-.792v-1.512q.012-.18.048-.324a.7.7 0 0 1 .132-.24q.084-.096.252-.096.18 0 .336.048.168.048.36.048h.612q.348-.012.708-.012h.72q.348-.012.612-.012.36 0 .492.072.144.072.144.42a.87.87 0 0 1-.108.408q-.108.192-.264.192h-1.38a46 46 0 0 0-.96-.012q-.384-.012-.612-.012a7 7 0 0 0-.36-.012q0 .132-.012.348v.456q0 .228-.012.444v.36l2.064-.024q.168 0 .288.132.12.12.12.42 0 .048-.024.144a.6.6 0 0 1-.06.18.5.5 0 0 1-.108.156.25.25 0 0 1-.168.06h-1.332a7 7 0 0 0-.36-.012h-.216a1 1 0 0 0-.192.012l.036 1.776q.72 0 1.464.048.744.036 1.536.036.24 0 .3.204.072.204.072.444 0 .336-.18.456a.7.7 0 0 1-.408.12q-.228 0-.408-.024a8 8 0 0 1-.384-.036q-.204-.012-.492-.036a18 18 0 0 0-.732-.012 6 6 0 0 0-.516.024 4 4 0 0 1-.564.036q-.204 0-.348-.192a.87.87 0 0 1-.12-.516zm5.137.564q0-.576.132-1.116t.325-1.08q.108-.312.323-.66.217-.36.517-.66.3-.312.647-.516a1.5 1.5 0 0 1 .745-.204q.336 0 .671.12.336.12.588.36.265.228.42.588.168.348.168.804 0 .108-.035.252a1.1 1.1 0 0 1-.084.264.5.5 0 0 1-.144.204.32.32 0 0 1-.216.084q-.168 0-.228-.12a1 1 0 0 1-.06-.3 7 7 0 0 0-.037-.396.94.94 0 0 0-.108-.396.73.73 0 0 0-.311-.312q-.204-.12-.612-.12-.337 0-.612.18-.276.18-.493.468a3.2 3.2 0 0 0-.36.636 5.637 5.637 0 0 0-.396 1.38 4 4 0 0 0-.048.528q0 .384.145.672.156.288.395.492.253.204.552.312.312.096.636.096.156 0 .373-.012a4 4 0 0 0 .444-.048q.227-.036.444-.084.216-.048.383-.12l.289-.252q.096-.084.156-.084.167 0 .275.156a.7.7 0 0 1 .108.396.67.67 0 0 1-.251.528q-.24.204-.6.336-.36.12-.78.168-.42.06-.757.06a4.2 4.2 0 0 1-.936-.108 2.15 2.15 0 0 1-.828-.396 2.14 2.14 0 0 1-.611-.792q-.23-.516-.229-1.308m5.93-.732q.012-.948.264-1.608.264-.66.684-1.068.432-.42.96-.612.54-.192 1.092-.192 1.272 0 1.968.912t.696 2.52q0 .756-.24 1.392a3.6 3.6 0 0 1-.636 1.08 2.95 2.95 0 0 1-.912.696 2.3 2.3 0 0 1-1.056.252q-.576 0-1.092-.3a3.5 3.5 0 0 1-.888-.792 4.2 4.2 0 0 1-.612-1.092 3.3 3.3 0 0 1-.228-1.188m2.772 2.316q.42 0 .804-.144.396-.156.696-.444.3-.3.48-.732t.18-1.008q0-.564-.144-1.008a2.2 2.2 0 0 0-.384-.768 1.6 1.6 0 0 0-.588-.492 1.6 1.6 0 0 0-.732-.168q-.444 0-.864.144-.42.132-.756.42a2.2 2.2 0 0 0-.528.72 2.5 2.5 0 0 0-.192 1.008q0 .444.168.888t.444.792q.288.348.648.576.372.216.768.216"/><path fill="#C5E7ED" d="M184.197 128.312H48.571V225.7h135.626z"/><path fill="#D7EFF2" d="M185.757 128.312H47.022v5.686h138.735zM169.604 162.625H63.186v30.3h106.418z"/><path fill="#478C93" d="M90.855 186.638a9 9 0 0 1-1.103.089c-1.193 0-2.43-.301-3.423-.959a45 45 0 0 1-1.65 1.929c-.19.178-.412.134-.568.022a.374.374 0 0 1-.022-.568c.156-.156.825-.87 1.694-1.84-1.014-.936-1.516-2.274-1.516-3.489 0-.869.256-1.717.78-2.319.892-1.036 1.974-1.349 2.843-1.349.524 0 .981.112 1.282.279.457.257.524.413.413.546-.09.09-.324.134-.602.179-.915.089-2.23.39-2.966 1.605-.345.546-.524 1.26-.524 1.951 0 .78.234 1.538.736 2.062 2.13-2.385 4.08-4.86 5.786-7.591-.691-1.45-1.427-3.01-1.427-4.638 0-.345.044-.691.111-1.037.368-1.761 1.628-3.121 2.932-2.987 1.015.111 1.817 1.014 1.817 2.475a5.2 5.2 0 0 1-.278 1.605c-.324.959-.915 2.129-1.65 3.355.133.179.256.346.39.524 1.014 1.238 2.163 2.932 2.163 4.816 0 .647-.134 1.282-.435 1.951-.78 1.761-2.665 3.055-4.794 3.378zm2.642-4.838c0-1.427-.546-2.709-1.148-3.924-1.694 2.597-3.578 5.005-5.552 7.369.112.089.235.178.368.256.602.368 1.35.568 2.14.568 1.673 0 3.423-.891 3.947-2.664.156-.546.257-1.104.257-1.605zm-.256-12.385c-.736 0-1.472.824-1.472 2.207 0 1.081.502 2.408 1.327 3.712.736-1.327 1.237-2.575 1.304-3.378.112-1.884-.412-2.541-1.17-2.541zM103.085 185.913a5.9 5.9 0 0 1-2.52.602c-.892 0-1.739-.234-2.408-.668-1.282-.825-1.471-2.018-1.349-2.843.257-1.817 1.472-2.865 2.62-3.512a5.2 5.2 0 0 1 2.297-.568c.735 0 1.404.212 1.739.758.133.234.234.479.234.758 0 1.037-1.037 2.229-2.732 3.054-.914.457-1.694.692-2.129.781.134.802.569 1.215 1.037 1.404.368.156.691.234 1.059.234.569 0 1.193-.211 2.018-.624 1.059-.524 1.795-1.561 1.928-1.906.09-.156.279-.156.368-.045.089.112.112.301 0 .502-.256.479-.735 1.405-2.129 2.085zm-4.147-3.656c-.134.524-.19.959-.19 1.349.524-.067 1.405-.279 2.085-.847.691-.602 1.17-1.606 1.17-2.341 0-.346-.111-.647-.39-.759-.847-.39-2.207.458-2.687 2.598z"/><path fill="#478C93" d="M109.015 185.523c-.646.569-1.583 1.082-2.619.87-1.082-.234-1.628-1.762-1.628-4.036 0-1.215.156-2.642.479-4.203.892-4.336 2.297-8.305 4.058-8.082.78.112 1.037 1.015 1.037 2.107 0 1.405-.413 3.099-.647 3.88-.368 1.237-1.861 4.225-3.032 5.596-.022.479-.045.959-.045 1.405 0 1.404.157 2.385.502 2.497.736.234 1.405-.368 1.84-.825a7 7 0 0 0 1.059-1.516c.089-.156.178-.179.278-.134.089.089.156.323.045.568-.19.435-.669 1.282-1.327 1.862zm-1.951-7.558c-.111.803-.234 1.628-.301 2.43.714-.847 1.606-2.363 2.341-4.548.458-1.371.692-2.731.692-3.69 0-.825-.156-1.382-.502-1.472-.736-.234-1.739 3.858-2.23 7.269z"/><path fill="#478C93" d="M115.526 185.913a5.9 5.9 0 0 1-2.52.602c-.892 0-1.739-.234-2.408-.668-1.282-.825-1.471-2.018-1.349-2.843.257-1.817 1.472-2.865 2.62-3.512a5.2 5.2 0 0 1 2.297-.568c.735 0 1.404.212 1.739.758.133.234.234.479.234.758 0 1.037-1.037 2.229-2.731 3.054-.915.457-1.695.692-2.13.781.134.802.569 1.215 1.037 1.404.368.156.691.234 1.059.234.569 0 1.193-.211 2.018-.624 1.059-.524 1.795-1.561 1.928-1.906.09-.156.279-.156.368-.045.089.112.112.301 0 .502-.256.479-.735 1.405-2.129 2.085zm-4.147-3.656a5.4 5.4 0 0 0-.19 1.349c.524-.067 1.405-.279 2.085-.847.691-.602 1.17-1.606 1.17-2.341 0-.346-.111-.647-.39-.759-.847-.39-2.207.458-2.687 2.598z"/><path fill="#478C93" d="M125.258 183.818c-.324.691-.892 1.56-2.23 2.229-.669.323-1.404.457-2.185.457a6.7 6.7 0 0 1-1.65-.212c-1.259-.323-2.497-1.583-2.274-3.444.257-2.04 2.252-3.969 4.225-3.969 1.84 0 2.274 1.037 2.185 1.628-.067.501-.412 1.081-1.148 1.036-.78-.044-.936-.624-.847-1.081.111-.435.111-.847-.346-.892-.669-.067-1.494 1.059-1.862 2.598-.111.546-.2 1.081-.2 1.56 0 .892.278 1.628 1.081 1.951.39.156.78.234 1.148.234.669 0 1.305-.211 1.817-.479 1.238-.691 1.795-1.761 1.974-2.062.067-.134.234-.156.345-.067.089.067.134.256-.022.524z"/><path fill="#478C93" d="M128.424 185.59c-.569.546-1.472.959-2.408.803-.981-.19-1.394-1.148-1.394-2.575 0-.87.156-1.929.413-3.077.156-.736.368-1.561.546-2.386h-.669a.38.38 0 0 1-.39-.39c0-.212.189-.368.39-.368h.87c.345-1.382.669-2.519.802-2.798.257-.457.502-.569.825-.546.301.044.669.345.502.892a45 45 0 0 0-.569 2.452h1.171c.212 0 .39.156.39.368a.38.38 0 0 1-.39.39h-1.327c-.156.736-.301 1.516-.457 2.274-.278 1.539-.602 3.077-.602 4.058 0 .569.112.937.39 1.037.669.178 1.494-.457 1.84-.825a9 9 0 0 0 .869-1.282c.045-.112.234-.156.346-.089.089.067.134.212.045.435-.212.501-.625 1.103-1.193 1.627"/><path fill="#478C93" d="M132.582 185.59c-.39.346-1.171.892-2.107.78-.847-.133-1.516-1.148-1.516-2.642 0-.39.044-.78.134-1.215.345-1.583.713-2.909 1.014-3.233.301-.345.524-.367.78-.345.279.022.569.134.669.368.19.39-.368 1.995-.568 3.166-.134.758-.346 1.739-.346 2.408 0 .368.067.669.234.735.457.235 1.215-.278 1.672-.802.435-.48.736-1.015.892-1.349.067-.19.234-.234.346-.156.089.044.156.234.067.457-.201.546-.758 1.371-1.26 1.839zm-1.371-9.108c-.547-.133-.87-.735-.714-1.349.134-.624.714-1.014 1.238-.869.546.111.869.736.735 1.349-.156.624-.713 1.014-1.259.869"/><path fill="#478C93" d="M141.277 185.858c-.646.323-1.494.479-2.252.479a4.2 4.2 0 0 1-1.103-.134c-.257.134-.847.234-1.104.234-2.319.09-3.578-1.493-3.578-3.143.022-2.497 2.252-4.381 4.425-4.426 2.475-.045 3.356 1.605 3.334 3.077-.023 1.304-.848 2.753-2.041 3.645.647.156 1.494.067 2.152-.345.87-.502 1.349-1.305 1.561-1.695.089-.178.323-.256.457-.212.134.067.212.234.067.48-.279.546-.892 1.493-1.929 2.04zm-2.018-4.036c0-1.583-.735-2.296-1.627-2.341-1.037-.022-2.107.87-2.363 3.144a8 8 0 0 0-.067.992c0 1.583.546 2.23 1.471 2.207.937 0 2.185-.825 2.52-3.077.044-.323.066-.646.066-.914z"/><path fill="#478C93" d="M150.831 185.568c-.457.435-1.26 1.081-2.085.869-.958-.211-1.583-1.237-1.371-2.341.201-1.126.736-3.099.803-3.4.067-.323.212-.847-.156-.959s-1.494.714-2.364 2.23c-.847 1.494-1.627 3.668-1.716 3.991-.09.301-.502.368-.87.368-.39 0-.892.067-.869-.368.044-.412.111-2.107.345-3.668.234-1.516.569-2.82.803-3.054s.546-.156.847-.156c.301.022.736.156.647.501-.067.324-.736 3.211-.803 3.534-.045.19.022.301.089.301.067.023.19-.044.256-.178.19-.301.647-1.405 1.383-2.408.691-.992 1.672-2.062 2.731-1.817.992.279 1.26 1.26 1.26 1.839 0 .736-.48 2.888-.602 3.623-.045.301-.234 1.193.067 1.282.39.09.936-.301 1.427-.847.457-.524.78-1.014.981-1.449.067-.212.301-.257.412-.156.089.067.134.212.045.457-.212.546-.803 1.371-1.238 1.817z"/><path fill="#F3E3BB" d="M139.572 68.103c.635.122 1.672 8.093 1.672 8.093l9.42-4.036-3.077-13.934-8.004 9.877z"/><path fill="#F3E3BB" d="M135.77 47.713c-3.634.067-4.359 4.359-3.679 8.684.68 4.326 2.687 12.575 6.946 11.84 4.258-.736 7.948-9.042 8.082-9.32 3.311-1.695 2.151-7.927.122-7.726s-2.028 1.828-2.028 1.828-5.786-5.373-9.443-5.295z"/><path fill="#19386A" d="M143.919 39.965c5.753.401 8.93 3.724 12.174 11.092 3.244 7.37-.268 13.389-1.215 17.447s-6.555 2.776-6.767 8.584-7.235 6.287-6.968 1.962 4.805-9.465 5.619-14.069.357-6.064.357-6.064 2.218-2.085 2.084-4.192c-.189-2.977-1.928-5.195-3.991-1.706-3.656.881-11.426-4.737-11.426-4.737 1.828-2.509 10.133-8.306 10.133-8.306z"/><path fill="#F3E3BB" d="M54.96 102.728c.846-.257 5.05-3.1 6.877-2.999 1.829.1-1.293 2.609-1.293 2.609 4.682-1.282 7.76-.992 8.328-.279s-4.303 7.38-9.699 7.291c-5.395-.089-5.875 0-5.875 0l1.661-6.611z"/><path fill="#935F37" d="M29.263 216.381s1.862 3.868 7.224 5.73c5.362 1.861 6.477 1.861 6.176 4.793s-22.452-.1-22.452-.1-.892-.513-.892-.803c0-1.661 2.787-9.632 2.787-9.632s2.865-.535 7.146 0z"/><path fill="#9E653E" d="M20.735 217.116s2.085 3.947 7.447 5.82c5.362 1.861 6.477 1.861 6.176 4.793s-22.452-.1-22.452-.1-.892-.513-.892-.803c0-1.661 2.787-9.632 2.787-9.632s2.676-.535 6.923-.078z"/><path fill="#31A08C" d="m32.764 125.86-1.74 92.382-11.894.279-5.608-45.06c-3.154-20.434-8.416-43.934-7.145-52.941 10.512-5.05 26.387 5.351 26.387 5.351z"/><path fill="#31A08C" d="m29.609 125.447-4.994 93.698H13.043l-3.31-45.695c-3.156-20.434-8.418-43.934-7.147-52.941 10.513-5.05 27.023 4.938 27.023 4.938"/><path fill="#F3E3BB" d="M31.448 37.546c3.255.39 4.036 19.52-.089 21.917S22.05 57.2 20.033 53.744c-3.936-1.728-3.423-8.506-1.505-8.472 1.917.033 2.43.858 2.43.858s1.761-9.654 10.479-8.595z"/><path fill="#F3E3BB" d="M27.123 59.586s-2.609 2.586-4.025 5.92c-3.846.434-12.396-5.129-12.396-5.129s.992-3.78 1.338-6.087c1.694-3.623 6.677-5.083 6.677-5.083l8.406 10.367z"/><path fill="#F9AB70" d="m7.525 62.094 1.728-2.676s12.452 5.273 14.615 6.566c-.558 2.687 1.26 6.4 1.783 9.788 0 0 6.856 27.357 10.502 47.691-8.629 6.521-35.005 2.609-35.005 2.609 1.193-14.236.58-27.447-.379-33.968s-2.63-26.911 6.756-30.01"/><path fill="#F9AB70" d="M7.57 72.55c-3.546 4.114.668 18.016 4.213 23.768s10.312 15.774 11.94 16.878c1.627 1.103 25.172.145 32.028-3.356.524-2.921-.58-8.294-.58-8.294l-23.522-.167s-7.012-21.906-11.94-25.105"/><path fill="#F7A166" d="M30.066 114.132c-2.553 0-5.909-.39-7.915-2.196C18.74 108.87 7.413 85.627 6.934 84.635c-.067-.134 0-.301.123-.368.133-.067.3 0 .367.123.123.245 11.762 24.135 15.095 27.134 3.277 2.954 10.824 1.839 10.902 1.828a.275.275 0 0 1 .313.234.275.275 0 0 1-.235.312 24 24 0 0 1-3.433.234"/><path fill="#F7A166" d="M10.356 91.168s-.089-.012-.133-.034l-3.813-2.23a.275.275 0 0 1-.1-.379.275.275 0 0 1 .379-.1l3.812 2.23a.275.275 0 0 1-.133.513zM29.609 96.53a.29.29 0 0 1-.257-.168c-.067-.167-7.157-16.61-9.252-19.441a.27.27 0 0 1 .055-.38.27.27 0 0 1 .38.056c2.14 2.888 9.018 18.874 9.32 19.554a.27.27 0 0 1-.146.356c-.033.011-.067.023-.111.023z"/><path fill="#19386A" d="M20.97 46.141s2.218-.557 3.578-4.069 11.627-1.371 10.68-6.154c-1.706-.189-4.962-5.15-12.308-6.454-8.205-1.45-11.293 4.794-11.293 4.794-7.714 1.516.245 21.582.245 21.582 4.805-.279 6.6-6.377 6.6-6.377l2.497-3.333z"/><path fill="#F3E3BB" d="M21.148 46.61c-1.327-1.795-2.33-3.378-4.07-2.364-1.739 1.014-.256 8.138 2.04 7.603s2.04-5.24 2.04-5.24z"/><path stroke="#2F9682" stroke-linecap="round" stroke-miterlimit="10" stroke-width=".5" d="m28.817 140.185-4.091 76.742"/><path fill="#31A08C" d="m113.865 118.435-6.555-14.436a2.39 2.39 0 0 0-2.174-1.405h-2.798c-1.739 0-2.899 1.795-2.174 3.378l5.663 12.463v9.877h42.418v-9.877h-34.38"/><path fill="#48B7A1" d="M136.829 121.278h-27.736v4.938h27.736z"/><path fill="#83DDCC" d="M112.092 125.046a.357.357 0 1 0 0-.714.357.357 0 0 0 0 .714M116.44 125.046a.356.356 0 1 0 0-.713.356.356 0 0 0 0 .713M120.787 125.046a.357.357 0 1 0 0-.714.357.357 0 0 0 0 .714M125.146 125.046a.357.357 0 1 0 0-.714.357.357 0 0 0 0 .714M129.494 125.046a.357.357 0 1 0 0-.714.357.357 0 0 0 0 .714M133.842 125.046a.356.356 0 1 0 0-.713.356.356 0 0 0 0 .713"/><path fill="#F3E3BB" d="M137.498 111.992c-.959-.279-5.462-.101-6.109.234-.647.334-6.209 3.378-5.975 4.136s2.419 3.121 7.201.847c2.497 1.092 5.875-1.873 5.875-1.873z"/><path fill="#FCD56B" d="M160.173 76.776c5.864-4.47 9.766 26.387 8.818 30.757s-30.813 9.576-30.813 9.576c-1.17-1.895-1.326-5.864-1.326-5.864 8.65-3.701 21.905-8.116 21.905-8.116-.535-4.738-3.277-22.764 1.427-26.353z"/><path fill="#D7EFF2" d="M76.776 35.395a4.738 4.738 0 1 0 0-9.476 4.738 4.738 0 0 0 0 9.476"/><path stroke="#C5E7ED" stroke-miterlimit="10" d="M76.776 0v20.278"/><path fill="#C5E7ED" d="m76.776 13.656-15.329 17h30.657z"/><path fill="#D7EFF2" d="M176.348 35.395a4.738 4.738 0 1 0 0-9.476 4.738 4.738 0 0 0 0 9.476"/><path stroke="#C5E7ED" stroke-miterlimit="10" d="M176.349 0v20.278"/><path fill="#C5E7ED" d="m176.348 13.656-15.328 17h30.657z"/><path fill="#AFBE3F" d="M205.523 150.14s-8.384-7.893.546-19.219c7.268 7.67 2.051 20.178-.546 19.219M213.482 156.951s-1.951-11.348 11.995-15.027c1.193 10.501-10.49 17.357-11.995 15.027M199.447 160.496s1.951-11.348-11.995-15.027c-1.193 10.501 10.49 17.357 11.995 15.027M200.372 166.538s-4.314-9.464-15.15-2.954c4.393 8.35 15.329 5.63 15.15 2.954M214.307 181.521s.825-11.482 15.25-11.716c-1.36 10.479-14.347 14.336-15.25 11.716"/><path fill="#9E653E" d="M205.344 137.364s-.067 1.238-.056 3.389c0 2.163.134 5.24.625 8.896a69 69 0 0 0 1.048 5.842c.446 2.062.992 4.225 1.527 6.499 1.092 4.537 1.862 9.543 2.018 14.581.089 2.52.033 5.05-.145 7.536-.179 2.464-.491 4.905-.758 7.18-.569 4.581-.914 8.751-.625 12.184.134 1.717.424 3.255.725 4.705.301 1.494.569 2.787.792 3.857.423 2.229.512 3.634.512 3.634l-5.596.301s.011-1.07-.223-3.121c-.145-1.059-.312-2.353-.513-3.824-.2-1.527-.423-3.344-.434-5.34-.056-3.98.657-8.439 1.56-12.987.446-2.297.892-4.582 1.238-6.956a67 67 0 0 0 .646-7.18c.19-4.849-.189-9.698-.947-14.236-.368-2.274-.758-4.492-1.059-6.599a75 75 0 0 1-.636-5.998 72 72 0 0 1 0-8.985c.145-2.163.301-3.389.301-3.389z"/><path fill="#9E653E" d="M208.399 172.759s.267-1.672.858-4.103c.591-2.441 1.539-5.652 2.809-8.74.625-1.549 1.372-3.043 2.119-4.414.412-.669.802-1.316 1.181-1.917.424-.58.825-1.126 1.204-1.628.402-.479.803-.892 1.137-1.271.324-.39.68-.658.959-.892l.87-.747-.825.792c-.257.256-.602.535-.903.936-.313.39-.692.825-1.059 1.316-.346.512-.714 1.07-1.104 1.661a218 218 0 0 1-1.059 1.951c-.669 1.393-1.327 2.898-1.862 4.459-1.092 3.11-1.85 6.321-2.307 8.74-.457 2.43-.625 4.046-.625 4.046zM208.443 181.744s-.758-2.129-2.029-5.306c-1.27-3.166-3.076-7.347-5.139-11.405-1.025-2.029-2.107-4.035-3.222-5.852a46 46 0 0 0-1.649-2.598c-.524-.836-1.093-1.549-1.606-2.24-.49-.703-1.025-1.271-1.482-1.795-.446-.524-.859-.981-1.238-1.293-.736-.68-1.159-1.059-1.159-1.059s.435.367 1.193 1.014c.401.312.825.736 1.293 1.249.479.501 1.037 1.059 1.561 1.75.535.669 1.148 1.371 1.694 2.185.569.802 1.193 1.639 1.761 2.542 1.193 1.783 2.353 3.756 3.467 5.763 4.471 8.004 7.86 16.543 7.86 16.543l-1.316.491z"/><path fill="#9E653E" d="M203.07 168.891s-2.932-1.271-5.964-2.33c-1.516-.535-3.043-1.015-4.214-1.293-1.171-.29-1.973-.357-1.973-.357s.802-.023 2.006.145c1.204.156 2.799.468 4.37.836 3.155.736 6.254 1.694 6.254 1.694l-.479 1.316zM206.448 190.551s.836-1.238 2.163-2.965a68 68 0 0 1 5.239-6.076 42 42 0 0 1 3.133-2.921c.501-.457 1.059-.825 1.549-1.215.491-.379 1.015-.68 1.461-.981.446-.312.914-.502 1.304-.725a5.4 5.4 0 0 1 1.037-.468c.591-.223.925-.356.925-.356s-.323.167-.87.457a6 6 0 0 0-.958.579c-.346.257-.781.502-1.182.859-.401.356-.87.691-1.304 1.126s-.914.858-1.36 1.36a45 45 0 0 0-2.687 3.188 64 64 0 0 0-4.336 6.488c-1.093 1.839-1.717 3.077-1.717 3.077l-2.408-1.438z"/><path fill="#84CAD1" d="m194.475 194.553 3.144 31.147h20.634l2.052-31.147z"/></g><defs><clipPath id="a"><path fill="#fff" d="M0 0h229.557v229H0z"/></clipPath></defs></svg>